<svg width="38" height="39" viewBox="0 0 38 39" fill="none" xmlns="http://www.w3.org/2000/svg">
<rect x="1" y="1" width="36" height="37" rx="18" fill="white"/>
<rect x="1" y="1" width="36" height="37" rx="18" stroke="#379777" stroke-width="2"/>
<g clip-path="url(#clip0_2391_646)">
<path d="M29.02 12H27V9.98C27 9.44 26.56 9 26.02 9H25.99C25.44 9 25 9.44 25 9.98V12H22.99C22.45 12 22.01 12.44 22 12.98V13.01C22 13.56 22.44 14 22.99 14H25V16.01C25 16.55 25.44 17 25.99 16.99H26.02C26.56 16.99 27 16.55 27 16.01V14H29.02C29.56 14 30 13.56 30 13.02V12.98C30 12.44 29.56 12 29.02 12ZM24 16.01V15H22.99C22.46 15 21.96 14.79 21.58 14.42C21.21 14.04 21 13.54 21 12.98C21 12.62 21.1 12.29 21.27 12H13C11.9 12 11 12.9 11 14V26C11 27.1 11.9 28 13 28H25C26.1 28 27 27.1 27 26V17.72C26.7 17.89 26.36 18 25.98 18C24.89 17.99 24 17.1 24 16.01ZM23.96 26H14C13.59 26 13.35 25.53 13.6 25.2L15.58 22.57C15.79 22.29 16.2 22.31 16.4 22.59L18 25L20.61 21.52C20.81 21.26 21.2 21.25 21.4 21.51L24.35 25.19C24.61 25.52 24.38 26 23.96 26V26Z" fill="#379777"/>
</g>
<defs>
<clipPath id="clip0_2391_646">
<rect width="24" height="24" fill="white" transform="translate(8 7)"/>
</clipPath>
</defs>
</svg>
