<svg width="38" height="39" viewBox="0 0 38 39" fill="none" xmlns="http://www.w3.org/2000/svg">
<rect x="1" y="1" width="36" height="37" rx="18" fill="white"/>
<rect x="1" y="1" width="36" height="37" rx="18" stroke="#379777" stroke-width="2"/>
<g clip-path="url(#clip0_2391_646)">
<path d="M19 19.25C20.24 19.25 21.25 18.24 21.25 17C21.25 15.76 20.24 14.75 19 14.75C17.76 14.75 16.75 15.76 16.75 17C16.75 18.24 17.76 19.25 19 19.25ZM23.5 23.25C23.5 21.75 20.5 21 19 21C17.5 21 14.5 21.75 14.5 23.25V24H23.5V23.25ZM26 10H12C10.9 10 10 10.9 10 12V26C10 27.1 10.9 28 12 28H26C27.1 28 28 27.1 28 26V12C28 10.9 27.1 10 26 10ZM25 26H13C12.45 26 12 25.55 12 25V13C12 12.45 12.45 12 13 12H25C25.55 12 26 12.45 26 13V25C26 25.55 25.55 26 25 26Z" fill="#379777"/>
</g>
<defs>
<clipPath id="clip0_2391_646">
<rect width="24" height="24" fill="white" transform="translate(7 7)"/>
</clipPath>
</defs>
</svg>
