<svg width="25" height="25" viewBox="0 0 25 25" fill="none" xmlns="http://www.w3.org/2000/svg">
<path d="M19.4997 15.3751C19.8643 14.4897 20.0622 13.5418 20.0622 12.5001C20.0622 11.7501 19.9476 11.0314 19.7497 10.3647C19.0726 10.521 18.3643 10.6043 17.6247 10.6043C16.1101 10.6059 14.6173 10.2434 13.2721 9.54724C11.9269 8.8511 10.7689 7.84176 9.89551 6.6043C8.96213 8.86549 7.19938 10.6841 4.96842 11.6876C4.92676 11.9481 4.92676 12.2293 4.92676 12.5001C4.92676 13.4946 5.12264 14.4794 5.50321 15.3982C5.88379 16.317 6.4416 17.1518 7.14481 17.855C8.56501 19.2752 10.4912 20.0731 12.4997 20.0731C13.5934 20.0731 14.6455 19.8335 15.5934 19.4064C16.1872 20.5418 16.458 21.1043 16.4372 21.1043C14.7288 21.6772 13.4059 21.9585 12.4997 21.9585C9.97884 21.9585 7.57259 20.9689 5.80176 19.1876C4.72368 18.1146 3.92287 16.7955 3.46842 15.3439H2.08301V10.6043H3.21842C3.56243 8.92984 4.35331 7.37973 5.50716 6.11846C6.66101 4.85719 8.13479 3.93181 9.7721 3.44051C11.4094 2.94921 13.1492 2.91032 14.8068 3.32796C16.4645 3.7456 17.9781 4.60419 19.1872 5.81264C20.4995 7.12053 21.3948 8.78793 21.7601 10.6043H22.9163V15.3439H22.8538L19.1455 18.7501L13.6247 18.1251V16.3856H18.6559L19.4997 15.3751ZM9.65593 12.2606C9.96843 12.2606 10.2705 12.3856 10.4893 12.6147C10.7091 12.8364 10.8325 13.1359 10.8325 13.4481C10.8325 13.7602 10.7091 14.0598 10.4893 14.2814C10.2705 14.5001 9.96843 14.6251 9.65593 14.6251C8.99968 14.6251 8.46843 14.1043 8.46843 13.4481C8.46843 12.7918 8.99968 12.2606 9.65593 12.2606ZM15.333 12.2606C15.9893 12.2606 16.5101 12.7918 16.5101 13.4481C16.5101 14.1043 15.9893 14.6251 15.333 14.6251C14.6768 14.6251 14.1455 14.1043 14.1455 13.4481C14.1455 13.1331 14.2706 12.8311 14.4933 12.6084C14.716 12.3857 15.0181 12.2606 15.333 12.2606Z" fill="black"/>
</svg>
