<svg width="25" height="25" viewBox="0 0 25 25" fill="none" xmlns="http://www.w3.org/2000/svg">
<path d="M19.4997 15.375C19.8643 14.4896 20.0622 13.5417 20.0622 12.5C20.0622 11.75 19.9476 11.0312 19.7497 10.3646C19.0726 10.5208 18.3643 10.6042 17.6247 10.6042C16.1101 10.6058 14.6173 10.2432 13.2721 9.54709C11.9269 8.85095 10.7689 7.8416 9.89551 6.60415C8.96213 8.86534 7.19938 10.684 4.96842 11.6875C4.92676 11.9479 4.92676 12.2292 4.92676 12.5C4.92676 13.4945 5.12264 14.4792 5.50321 15.398C5.88379 16.3168 6.4416 17.1516 7.14481 17.8548C8.56501 19.275 10.4912 20.0729 12.4997 20.0729C13.5934 20.0729 14.6455 19.8333 15.5934 19.4062C16.1872 20.5417 16.458 21.1042 16.4372 21.1042C14.7288 21.6771 13.4059 21.9583 12.4997 21.9583C9.97884 21.9583 7.57259 20.9687 5.80176 19.1875C4.72368 18.1145 3.92287 16.7953 3.46842 15.3437H2.08301V10.6042H3.21842C3.56243 8.92969 4.35331 7.37958 5.50716 6.11831C6.66101 4.85704 8.13479 3.93166 9.7721 3.44036C11.4094 2.94906 13.1492 2.91016 14.8068 3.3278C16.4645 3.74544 17.9781 4.60404 19.1872 5.81248C20.4995 7.12038 21.3948 8.78778 21.7601 10.6042H22.9163V15.3437H22.8538L19.1455 18.75L13.6247 18.125V16.3854H18.6559L19.4997 15.375ZM9.65593 12.2604C9.96843 12.2604 10.2705 12.3854 10.4893 12.6146C10.7091 12.8362 10.8325 13.1357 10.8325 13.4479C10.8325 13.7601 10.7091 14.0596 10.4893 14.2812C10.2705 14.5 9.96843 14.625 9.65593 14.625C8.99968 14.625 8.46843 14.1042 8.46843 13.4479C8.46843 12.7917 8.99968 12.2604 9.65593 12.2604ZM15.333 12.2604C15.9893 12.2604 16.5101 12.7917 16.5101 13.4479C16.5101 14.1042 15.9893 14.625 15.333 14.625C14.6768 14.625 14.1455 14.1042 14.1455 13.4479C14.1455 13.133 14.2706 12.8309 14.4933 12.6082C14.716 12.3855 15.0181 12.2604 15.333 12.2604Z" fill="white"/>
</svg>
