<svg width="37" height="42" viewBox="0 0 37 42" fill="none" xmlns="http://www.w3.org/2000/svg">
<path d="M22.7953 7.11608H4.44697C2.75805 7.11608 1.38892 8.48521 1.38892 10.1741V37.6965C1.38892 39.3854 2.75805 40.7545 4.44697 40.7545H22.7953C24.4842 40.7545 25.8533 39.3854 25.8533 37.6965V10.1741C25.8533 8.48521 24.4842 7.11608 22.7953 7.11608Z" stroke="black" stroke-width="1.5" stroke-linecap="round" stroke-linejoin="round"/>
<path d="M7.50488 14.7612H19.7371" stroke="black" stroke-width="1.5" stroke-linecap="round" stroke-linejoin="round"/>
<path d="M7.50488 22.4063H19.7371" stroke="black" stroke-width="1.5" stroke-linecap="round" stroke-linejoin="round"/>
<path d="M7.50488 30.0514H13.621" stroke="black" stroke-width="1.5" stroke-linecap="round" stroke-linejoin="round"/>
<path d="M9.03394 1H28.9113C29.7223 1 30.5001 1.32219 31.0736 1.89568C31.6471 2.46917 31.9693 3.247 31.9693 4.05804V33.1094" stroke="black" stroke-width="1.5" stroke-linecap="round" stroke-linejoin="round"/>
<rect width="19.4444" height="19.4444" transform="translate(17.2222 20.2778)" fill="white"/>
<path d="M24.2199 35.6624C21.1221 35.6624 18.6109 33.1512 18.6109 30.0534C18.6109 26.9557 21.1221 24.4444 24.2199 24.4444C27.3176 24.4444 29.8289 26.9557 29.8289 30.0534C29.8289 33.1512 27.3176 35.6624 24.2199 35.6624Z" stroke="black" stroke-width="1.5" stroke-linecap="round" stroke-linejoin="round"/>
<path d="M22.662 28.3957C22.8153 28.1651 23.0178 27.9715 23.255 27.8287C23.4923 27.686 23.7582 27.5977 24.0337 27.5703C24.3092 27.5429 24.5874 27.577 24.8481 27.6701C25.1088 27.7633 25.3455 27.9132 25.5413 28.109" stroke="black" stroke-width="1.5" stroke-linecap="round" stroke-linejoin="round"/>
<path d="M34.8147 40.6481L27.8596 34.3287" stroke="black" stroke-width="1.5" stroke-linecap="round" stroke-linejoin="round"/>
</svg>
