<svg width="26" height="26" viewBox="0 0 26 26" fill="none" xmlns="http://www.w3.org/2000/svg">
<path d="M5.16278 20.3125H23.5625V0.8125H5.112C4.29574 0.815124 3.51366 1.14054 2.93648 1.71773C2.35929 2.29491 2.03387 3.07699 2.03125 3.89325V21.8486H2.03181C2.03181 21.8563 2.03125 21.8639 2.03125 21.8716C2.03125 23.6693 3.44205 25.1877 5.112 25.1877H23.5625V23.5625H5.112C4.35013 23.5625 3.65625 22.7566 3.65625 21.8715C3.65625 21.0265 4.34611 20.3125 5.16278 20.3125ZM18.2812 2.45441V11.2302L15.8234 9.07253L13.4062 11.2176V2.45441H18.2812ZM11.7812 2.4375V13.4062H13.388L15.8293 11.24L18.2967 13.4062H19.9062V2.4375H21.9375V18.6875H6.91031L6.90625 2.4375H11.7812ZM5.112 2.4375H5.28125L5.28511 18.6875H5.16257C4.63419 18.6876 4.11498 18.8256 3.65625 19.0878V3.90594C3.65501 3.5183 3.80758 3.146 4.08049 2.87071C4.3534 2.59542 4.72436 2.43962 5.112 2.4375Z" fill="black"/>
</svg>
