<svg width="24" height="24" viewBox="0 0 24 24" fill="none" xmlns="http://www.w3.org/2000/svg">
<g clip-path="url(#clip0_2401_4173)">
<path d="M2 10C2 6.229 2 4.343 3.172 3.172C4.344 2.001 6.229 2 10 2H11.5C15.271 2 17.157 2 18.328 3.172C19.499 4.344 19.5 6.229 19.5 10V14C19.5 17.771 19.5 19.657 18.328 20.828C17.156 21.999 15.271 22 11.5 22H10C6.229 22 4.343 22 3.172 20.828C2.001 19.656 2 17.771 2 14V10Z" stroke="#5B5B5B" stroke-width="1.5" stroke-linecap="round" stroke-linejoin="round"/>
<path d="M7.8 11.974C7.373 11.23 7.167 10.623 7.043 10.007C6.859 9.097 7.28 8.207 7.976 7.639C8.271 7.399 8.608 7.481 8.782 7.794L9.175 8.499C9.486 9.057 9.642 9.337 9.611 9.633C9.581 9.929 9.371 10.17 8.951 10.653L7.8 11.974ZM7.8 11.974C8.70011 13.5164 9.98362 14.7999 11.526 15.7M11.526 15.7C12.27 16.127 12.877 16.333 13.493 16.457C14.403 16.641 15.293 16.22 15.861 15.524C16.101 15.229 16.019 14.892 15.706 14.718L15.002 14.325C14.442 14.014 14.163 13.858 13.867 13.889C13.571 13.919 13.33 14.129 12.847 14.549L11.526 15.7ZM3 6H0.5M3 12H0.5M3 18H0.5" stroke="#5B5B5B" stroke-width="1.5" stroke-linecap="round" stroke-linejoin="round"/>
</g>
<defs>
<clipPath id="clip0_2401_4173">
<rect width="24" height="24" fill="white"/>
</clipPath>
</defs>
</svg>
