<svg width="30" height="30" viewBox="0 0 30 30" fill="none" xmlns="http://www.w3.org/2000/svg">
<g clip-path="url(#clip0_2962_4130)">
<path d="M17.143 28.9286H3.21439C2.64607 28.9286 2.10103 28.7028 1.69916 28.3009C1.2973 27.8991 1.07153 27.354 1.07153 26.7857V3.21428C1.07153 2.64596 1.2973 2.10092 1.69916 1.69905C2.10103 1.29719 2.64607 1.07143 3.21439 1.07143H19.2858" stroke="#5B5B5B" stroke-width="1.5" stroke-linecap="round" stroke-linejoin="round"/>
<path d="M22.5 7.5L25.7143 1.07143L28.9286 7.5V25.7143C28.9286 26.5668 28.5899 27.3843 27.9871 27.9871C27.3843 28.5899 26.5668 28.9286 25.7143 28.9286C24.8618 28.9286 24.0442 28.5899 23.4414 27.9871C22.8386 27.3843 22.5 26.5668 22.5 25.7143V7.5Z" stroke="#5B5B5B" stroke-width="1.5" stroke-linecap="round" stroke-linejoin="round"/>
<path d="M22.5 20.3571H28.9286" stroke="#5B5B5B" stroke-width="1.5" stroke-linecap="round" stroke-linejoin="round"/>
<path d="M7.5 1.07143V28.9286" stroke="#5B5B5B" stroke-width="1.5" stroke-linecap="round" stroke-linejoin="round"/>
<path d="M12.8572 8.57143H17.1429" stroke="#5B5B5B" stroke-width="1.5" stroke-linecap="round" stroke-linejoin="round"/>
</g>
<defs>
<clipPath id="clip0_2962_4130">
<rect width="30" height="30" fill="white"/>
</clipPath>
</defs>
</svg>
