<svg width="16" height="16" viewBox="0 0 16 16" fill="none" xmlns="http://www.w3.org/2000/svg">
<path d="M2.66634 13.3333C2.29967 13.3333 1.9859 13.2029 1.72501 12.942C1.46412 12.6811 1.33345 12.3671 1.33301 12V4C1.33301 3.63333 1.46367 3.31955 1.72501 3.05866C1.98634 2.79778 2.30012 2.66711 2.66634 2.66666H13.333C13.6997 2.66666 14.0137 2.79733 14.275 3.05866C14.5363 3.32 14.6668 3.63378 14.6663 4V12C14.6663 12.3667 14.5359 12.6807 14.275 12.942C14.0141 13.2033 13.7001 13.3338 13.333 13.3333H2.66634ZM7.99967 8.66666L2.66634 5.33333V12H13.333V5.33333L7.99967 8.66666ZM7.99967 7.33333L13.333 4H2.66634L7.99967 7.33333ZM2.66634 5.33333V4V12V5.33333Z" fill="black"/>
</svg>
