<svg width="50" height="50" viewBox="0 0 50 50" fill="none" xmlns="http://www.w3.org/2000/svg">
<g clip-path="url(#clip0_2987_3736)">
<path d="M3.2499 44.8571L1.78561 19.8571C1.75517 19.6053 1.77873 19.3499 1.85473 19.1078C1.93073 18.8658 2.05743 18.6427 2.22639 18.4535C2.39534 18.2643 2.60268 18.1132 2.83459 18.0104C3.0665 17.9076 3.31765 17.8553 3.57133 17.8571H20.0356C20.4359 17.8596 20.8242 17.9939 21.1406 18.2392C21.4569 18.4845 21.6836 18.8272 21.7856 19.2143L23.2142 25H46.4285C46.6755 24.9992 46.92 25.0497 47.1465 25.1482C47.373 25.2468 47.5767 25.3912 47.7445 25.5725C47.9123 25.7537 48.0407 25.9678 48.1216 26.2013C48.2024 26.4347 48.2339 26.6823 48.2142 26.9286L46.8213 44.7857C46.7494 45.6826 46.3415 46.5192 45.6794 47.1283C45.0173 47.7375 44.1496 48.0743 43.2499 48.0714H6.82133C5.93288 48.0759 5.07466 47.749 4.41427 47.1547C3.75388 46.5603 3.33874 45.7412 3.2499 44.8571Z" stroke="#33DB00" stroke-width="2" stroke-linecap="round" stroke-linejoin="round"/>
<path d="M12.5 10.7143V3.57144C12.5 3.09783 12.6881 2.64363 13.023 2.30874C13.3579 1.97386 13.8121 1.78572 14.2857 1.78572H44.6429C45.1165 1.78572 45.5707 1.97386 45.9055 2.30874C46.2404 2.64363 46.4286 3.09783 46.4286 3.57144V17.8571" stroke="#33DB00" stroke-width="2" stroke-linecap="round" stroke-linejoin="round"/>
<path d="M26.7856 10.7143H37.4999" stroke="#33DB00" stroke-width="2" stroke-linecap="round" stroke-linejoin="round"/>
</g>
<defs>
<clipPath id="clip0_2987_3736">
<rect width="50" height="50" fill="white"/>
</clipPath>
</defs>
</svg>
