<svg width="30" height="30" viewBox="0 0 30 30" fill="none" xmlns="http://www.w3.org/2000/svg">
<g clip-path="url(#clip0_2960_4109)">
<path d="M10.7143 10.7143C13.3771 10.7143 15.5357 8.55566 15.5357 5.89286C15.5357 3.23005 13.3771 1.07143 10.7143 1.07143C8.05145 1.07143 5.89282 3.23005 5.89282 5.89286C5.89282 8.55566 8.05145 10.7143 10.7143 10.7143Z" stroke="black" stroke-width="1.5" stroke-linecap="round" stroke-linejoin="round"/>
<path d="M12.8571 14.1643C11.444 13.8381 9.97556 13.8355 8.56141 14.1567C7.14725 14.478 5.82401 15.1147 4.6906 16.0194C3.55719 16.924 2.64295 18.0732 2.01621 19.381C1.38948 20.6887 1.06647 22.1212 1.07134 23.5714V26.7857H12.8571" stroke="black" stroke-width="1.5" stroke-linecap="round" stroke-linejoin="round"/>
<path d="M22.8641 28.8643C22.6287 28.9494 22.371 28.9494 22.1356 28.8643C20.3485 28.1563 18.8151 26.9282 17.7339 25.3388C16.6527 23.7495 16.0735 21.8722 16.0713 19.95V17.1429C16.0618 16.9997 16.083 16.8562 16.1335 16.7219C16.184 16.5876 16.2626 16.4657 16.3641 16.3642C16.4655 16.2628 16.5875 16.1842 16.7218 16.1337C16.856 16.0832 16.9996 16.062 17.1427 16.0714H27.857C28.0002 16.062 28.1437 16.0832 28.278 16.1337C28.4123 16.1842 28.5342 16.2628 28.6356 16.3642C28.7371 16.4657 28.8157 16.5876 28.8662 16.7219C28.9167 16.8562 28.9379 16.9997 28.9284 17.1429V19.95C28.9263 21.8722 28.3471 23.7495 27.2659 25.3388C26.1847 26.9282 24.6512 28.1563 22.8641 28.8643V28.8643Z" stroke="black" stroke-width="1.5" stroke-linecap="round" stroke-linejoin="round"/>
<path d="M19.2856 21.7347L21.6964 23.5714L25.7142 19.2857" stroke="black" stroke-width="1.5" stroke-linecap="round" stroke-linejoin="round"/>
</g>
<defs>
<clipPath id="clip0_2960_4109">
<rect width="30" height="30" fill="white"/>
</clipPath>
</defs>
</svg>
