<svg width="19" height="19" viewBox="0 0 19 19" fill="none" xmlns="http://www.w3.org/2000/svg">
<g clip-path="url(#clip0_2401_4167)">
<path d="M16.625 1.1875C16.9399 1.1875 17.242 1.31261 17.4647 1.53531C17.6874 1.75801 17.8125 2.06006 17.8125 2.375V16.625C17.8125 16.9399 17.6874 17.242 17.4647 17.4647C17.242 17.6874 16.9399 17.8125 16.625 17.8125H2.375C2.06006 17.8125 1.75801 17.6874 1.53531 17.4647C1.31261 17.242 1.1875 16.9399 1.1875 16.625V2.375C1.1875 2.06006 1.31261 1.75801 1.53531 1.53531C1.75801 1.31261 2.06006 1.1875 2.375 1.1875H16.625ZM2.375 0C1.74511 0 1.14102 0.250223 0.695621 0.695621C0.250223 1.14102 0 1.74511 0 2.375L0 16.625C0 17.2549 0.250223 17.859 0.695621 18.3044C1.14102 18.7498 1.74511 19 2.375 19H16.625C17.2549 19 17.859 18.7498 18.3044 18.3044C18.7498 17.859 19 17.2549 19 16.625V2.375C19 1.74511 18.7498 1.14102 18.3044 0.695621C17.859 0.250223 17.2549 0 16.625 0L2.375 0Z" fill="#5B5B5B"/>
<path d="M10.6043 7.82325L7.88494 8.16406L7.78757 8.61531L8.32194 8.71387C8.67107 8.797 8.73994 8.92288 8.66394 9.27081L7.78757 13.3891C7.55719 14.4542 7.91226 14.9554 8.74707 14.9554C9.39426 14.9554 10.1459 14.6561 10.4868 14.2453L10.5913 13.7513C10.3538 13.9602 10.007 14.0434 9.77663 14.0434C9.45007 14.0434 9.33132 13.8142 9.41563 13.4104L10.6043 7.82325ZM10.6874 5.34375C10.6874 5.65869 10.5623 5.96074 10.3396 6.18344C10.1169 6.40614 9.81489 6.53125 9.49994 6.53125C9.185 6.53125 8.88295 6.40614 8.66025 6.18344C8.43755 5.96074 8.31244 5.65869 8.31244 5.34375C8.31244 5.02881 8.43755 4.72676 8.66025 4.50406C8.88295 4.28136 9.185 4.15625 9.49994 4.15625C9.81489 4.15625 10.1169 4.28136 10.3396 4.50406C10.5623 4.72676 10.6874 5.02881 10.6874 5.34375Z" fill="#5B5B5B"/>
</g>
<defs>
<clipPath id="clip0_2401_4167">
<rect width="19" height="19" fill="white"/>
</clipPath>
</defs>
</svg>
