<svg width="25" height="25" viewBox="0 0 25 25" fill="none" xmlns="http://www.w3.org/2000/svg">
<path d="M20.5417 2.41667H18.125V1.20833C18.125 0.887863 17.9977 0.580519 17.7711 0.353913C17.5445 0.127306 17.2371 0 16.9167 0C16.5962 0 16.2889 0.127306 16.0622 0.353913C15.8356 0.580519 15.7083 0.887863 15.7083 1.20833V2.41667H8.45833V1.20833C8.45833 0.887863 8.33103 0.580519 8.10442 0.353913C7.87781 0.127306 7.57047 0 7.25 0C6.92953 0 6.62219 0.127306 6.39558 0.353913C6.16897 0.580519 6.04167 0.887863 6.04167 1.20833V2.41667H3.625C2.66359 2.41667 1.74156 2.79859 1.06174 3.4784C0.381919 4.15822 0 5.08026 0 6.04167V20.5417C0 21.5031 0.381919 22.4251 1.06174 23.1049C1.74156 23.7847 2.66359 24.1667 3.625 24.1667H20.5417C21.5031 24.1667 22.4251 23.7847 23.1049 23.1049C23.7847 22.4251 24.1667 21.5031 24.1667 20.5417V6.04167C24.1667 5.08026 23.7847 4.15822 23.1049 3.4784C22.4251 2.79859 21.5031 2.41667 20.5417 2.41667ZM21.75 20.5417C21.75 20.8621 21.6227 21.1695 21.3961 21.3961C21.1695 21.6227 20.8621 21.75 20.5417 21.75H3.625C3.30453 21.75 2.99719 21.6227 2.77058 21.3961C2.54397 21.1695 2.41667 20.8621 2.41667 20.5417V12.0833H21.75V20.5417ZM21.75 9.66667H2.41667V6.04167C2.41667 5.7212 2.54397 5.41385 2.77058 5.18725C2.99719 4.96064 3.30453 4.83333 3.625 4.83333H6.04167V6.04167C6.04167 6.36214 6.16897 6.66948 6.39558 6.89609C6.62219 7.12269 6.92953 7.25 7.25 7.25C7.57047 7.25 7.87781 7.12269 8.10442 6.89609C8.33103 6.66948 8.45833 6.36214 8.45833 6.04167V4.83333H15.7083V6.04167C15.7083 6.36214 15.8356 6.66948 16.0622 6.89609C16.2889 7.12269 16.5962 7.25 16.9167 7.25C17.2371 7.25 17.5445 7.12269 17.7711 6.89609C17.9977 6.66948 18.125 6.36214 18.125 6.04167V4.83333H20.5417C20.8621 4.83333 21.1695 4.96064 21.3961 5.18725C21.6227 5.41385 21.75 5.7212 21.75 6.04167V9.66667Z" fill="black"/>
</svg>
