<svg width="30" height="30" viewBox="0 0 30 30" fill="none" xmlns="http://www.w3.org/2000/svg">
<g clip-path="url(#clip0_523_9917)">
<path d="M9.64287 22.5V26.7857C9.64287 27.354 9.86864 27.8991 10.2705 28.3009C10.6724 28.7028 11.2174 28.9286 11.7857 28.9286H26.7857C27.3541 28.9286 27.8991 28.7028 28.301 28.3009C28.7028 27.8991 28.9286 27.354 28.9286 26.7857V3.21427C28.9286 2.64595 28.7028 2.1009 28.301 1.69904C27.8991 1.29718 27.3541 1.07141 26.7857 1.07141H11.7857C11.2174 1.07141 10.6724 1.29718 10.2705 1.69904C9.86864 2.1009 9.64287 2.64595 9.64287 3.21427V7.49998" stroke="#5B5B5B" stroke-width="2" stroke-linecap="round" stroke-linejoin="round"/>
<path d="M16.0714 15H1.07141" stroke="#5B5B5B" stroke-width="2" stroke-linecap="round" stroke-linejoin="round"/>
<path d="M5.35718 10.7142L1.07146 14.9999L5.35718 19.2857" stroke="#5B5B5B" stroke-width="2" stroke-linecap="round" stroke-linejoin="round"/>
</g>
<defs>
<clipPath id="clip0_523_9917">
<rect width="30" height="30" fill="white" transform="matrix(-1 0 0 1 30 0)"/>
</clipPath>
</defs>
</svg>
