<svg width="30" height="30" viewBox="0 0 30 30" fill="none" xmlns="http://www.w3.org/2000/svg">
<path d="M20.625 4.6875C21.1223 4.6875 21.5992 4.88504 21.9508 5.23667C22.3025 5.58831 22.5 6.06522 22.5 6.5625V23.4375C22.5 23.9348 22.3025 24.4117 21.9508 24.7633C21.5992 25.115 21.1223 25.3125 20.625 25.3125H13.125C12.6277 25.3125 12.1508 25.115 11.7992 24.7633C11.4475 24.4117 11.25 23.9348 11.25 23.4375V18.75C11.25 18.5014 11.1512 18.2629 10.9754 18.0871C10.7996 17.9113 10.5611 17.8125 10.3125 17.8125C10.0639 17.8125 9.8254 17.9113 9.64959 18.0871C9.47377 18.2629 9.375 18.5014 9.375 18.75V23.4375C9.375 24.4321 9.77009 25.3859 10.4733 26.0892C11.1766 26.7924 12.1304 27.1875 13.125 27.1875H20.625C21.6196 27.1875 22.5734 26.7924 23.2767 26.0892C23.9799 25.3859 24.375 24.4321 24.375 23.4375V6.5625C24.375 5.56794 23.9799 4.61411 23.2767 3.91085C22.5734 3.20759 21.6196 2.8125 20.625 2.8125H13.125C12.1304 2.8125 11.1766 3.20759 10.4733 3.91085C9.77009 4.61411 9.375 5.56794 9.375 6.5625V11.25C9.375 11.4986 9.47377 11.7371 9.64959 11.9129C9.8254 12.0887 10.0639 12.1875 10.3125 12.1875C10.5611 12.1875 10.7996 12.0887 10.9754 11.9129C11.1512 11.7371 11.25 11.4986 11.25 11.25V6.5625C11.25 6.06522 11.4475 5.58831 11.7992 5.23667C12.1508 4.88504 12.6277 4.6875 13.125 4.6875H20.625ZM14.3375 10.5875C14.1619 10.7633 14.0633 11.0016 14.0633 11.25C14.0633 11.4984 14.1619 11.7367 14.3375 11.9125L16.4875 14.0625H2.8125C2.56386 14.0625 2.3254 14.1613 2.14959 14.3371C1.97377 14.5129 1.875 14.7514 1.875 15C1.875 15.2486 1.97377 15.4871 2.14959 15.6629C2.3254 15.8387 2.56386 15.9375 2.8125 15.9375H16.4875L14.3375 18.0875C14.2454 18.1733 14.1715 18.2768 14.1203 18.3918C14.069 18.5068 14.0415 18.631 14.0393 18.7568C14.037 18.8827 14.0602 19.0078 14.1073 19.1245C14.1545 19.2412 14.2247 19.3473 14.3137 19.4363C14.4027 19.5253 14.5088 19.5955 14.6255 19.6427C14.7422 19.6898 14.8673 19.713 14.9932 19.7107C15.119 19.7085 15.2432 19.681 15.3582 19.6297C15.4732 19.5785 15.5767 19.5046 15.6625 19.4125L19.4125 15.6625C19.5881 15.4867 19.6867 15.2484 19.6867 15C19.6867 14.7516 19.5881 14.5133 19.4125 14.3375L15.6625 10.5875C15.4867 10.4119 15.2484 10.3133 15 10.3133C14.7516 10.3133 14.5133 10.4119 14.3375 10.5875Z" fill="#5B5B5B"/>
</svg>
