<svg width="34" height="35" viewBox="0 0 34 35" fill="none" xmlns="http://www.w3.org/2000/svg">
<path d="M16.9993 17.5C15.441 17.5 14.166 16.225 14.166 14.6667C14.166 13.1083 15.441 11.8333 16.9993 11.8333C18.5577 11.8333 19.8327 13.1083 19.8327 14.6667C19.8327 16.225 18.5577 17.5 16.9993 17.5ZM25.4993 14.95C25.4993 9.80749 21.7452 6.16666 16.9993 6.16666C12.2535 6.16666 8.49935 9.80749 8.49935 14.95C8.49935 18.265 11.2618 22.6567 16.9993 27.8983C22.7368 22.6567 25.4993 18.265 25.4993 14.95ZM16.9993 3.33333C22.9493 3.33333 28.3327 7.89499 28.3327 14.95C28.3327 19.6533 24.5502 25.2208 16.9993 31.6667C9.44852 25.2208 5.66602 19.6533 5.66602 14.95C5.66602 7.89499 11.0493 3.33333 16.9993 3.33333Z" fill="black"/>
</svg>
