<svg width="24" height="25" viewBox="0 0 24 25" fill="none" xmlns="http://www.w3.org/2000/svg">
<g clip-path="url(#clip0_2392_6294)">
<path d="M4 21.5H20C20.55 21.5 21 21.05 21 20.5C21 19.95 20.55 19.5 20 19.5H4C3.45 19.5 3 19.95 3 20.5C3 21.05 3.45 21.5 4 21.5ZM10 17.5H20C20.55 17.5 21 17.05 21 16.5C21 15.95 20.55 15.5 20 15.5H10C9.45 15.5 9 15.95 9 16.5C9 17.05 9.45 17.5 10 17.5ZM4 13.5H20C20.55 13.5 21 13.05 21 12.5C21 11.95 20.55 11.5 20 11.5H4C3.45 11.5 3 11.95 3 12.5C3 13.05 3.45 13.5 4 13.5ZM10 9.5H20C20.55 9.5 21 9.05 21 8.5C21 7.95 20.55 7.5 20 7.5H10C9.45 7.5 9 7.95 9 8.5C9 9.05 9.45 9.5 10 9.5ZM3 4.5C3 5.05 3.45 5.5 4 5.5H20C20.55 5.5 21 5.05 21 4.5C21 3.95 20.55 3.5 20 3.5H4C3.45 3.5 3 3.95 3 4.5Z" fill="black"/>
</g>
<defs>
<clipPath id="clip0_2392_6294">
<rect width="24" height="24" fill="white" transform="translate(0 0.5)"/>
</clipPath>
</defs>
</svg>
