<svg width="43" height="43" viewBox="0 0 43 43" fill="none" xmlns="http://www.w3.org/2000/svg">
<g filter="url(#filter0_d_2890_9467)">
<rect x="4" width="34.7801" height="34.3365" rx="10" fill="#2B44E2"/>
<rect x="4.5" y="0.5" width="33.7801" height="33.3365" rx="9.5" stroke="black"/>
</g>
<path d="M12 23.0672V26.4445C12 26.7556 12.2444 27 12.5555 27H15.9328C16.0772 27 16.2216 26.9445 16.3216 26.8334L28.4533 14.7128L24.2872 10.5467L12.1666 22.6673C12.0555 22.7784 12 22.9117 12 23.0672ZM31.675 11.491C32.1083 11.0578 32.1083 10.3579 31.675 9.92459L29.0754 7.32495C28.6421 6.89168 27.9422 6.89168 27.509 7.32495L25.4759 9.35801L29.642 13.5241L31.675 11.491Z" fill="white"/>
<defs>
<filter id="filter0_d_2890_9467" x="0" y="0" width="42.7803" height="42.3369" filterUnits="userSpaceOnUse" color-interpolation-filters="sRGB">
<feFlood flood-opacity="0" result="BackgroundImageFix"/>
<feColorMatrix in="SourceAlpha" type="matrix" values="0 0 0 0 0 0 0 0 0 0 0 0 0 0 0 0 0 0 127 0" result="hardAlpha"/>
<feOffset dy="4"/>
<feGaussianBlur stdDeviation="2"/>
<feComposite in2="hardAlpha" operator="out"/>
<feColorMatrix type="matrix" values="0 0 0 0 0 0 0 0 0 0 0 0 0 0 0 0 0 0 0.25 0"/>
<feBlend mode="normal" in2="BackgroundImageFix" result="effect1_dropShadow_2890_9467"/>
<feBlend mode="normal" in="SourceGraphic" in2="effect1_dropShadow_2890_9467" result="shape"/>
</filter>
</defs>
</svg>
