<svg width="90" height="90" viewBox="0 0 90 90" fill="none" xmlns="http://www.w3.org/2000/svg">
<path d="M64.1248 40.219C64.652 40.7464 64.9482 41.4616 64.9482 42.2074C64.9482 42.9532 64.652 43.6684 64.1248 44.1958L41.6248 66.6958C41.0974 67.2231 40.3821 67.5193 39.6363 67.5193C38.8906 67.5193 38.1753 67.2231 37.6479 66.6958L26.3979 55.4458C25.8856 54.9154 25.6021 54.205 25.6085 53.4675C25.6149 52.7301 25.9107 52.0247 26.4322 51.5032C26.9536 50.9818 27.659 50.686 28.3965 50.6796C29.1339 50.6732 29.8443 50.9566 30.3748 51.469L39.656 60.7502L60.1873 40.219C60.7147 39.6917 61.4299 39.3955 62.1757 39.3955C62.9215 39.3955 63.6367 39.6917 64.1642 40.219H64.1248Z" fill="black"/>
<path fill-rule="evenodd" clip-rule="evenodd" d="M30.9372 5.625C29.1732 5.62633 27.4539 6.18053 26.0211 7.20969C24.5884 8.23885 23.5142 9.69119 22.9497 11.3625C19.4116 11.5538 16.931 11.9981 14.8497 13.0669C11.6821 14.6905 9.10457 17.268 7.48098 20.4356C5.6416 24.0469 5.6416 28.7606 5.6416 38.2106V62.9606C5.6416 72.4106 5.6416 77.1356 7.48098 80.7356C9.10457 83.9032 11.6821 86.4808 14.8497 88.1044C18.461 89.9438 23.1747 89.9438 32.6247 89.9438H57.3747C66.8247 89.9438 71.5497 89.9438 75.1497 88.1044C78.3219 86.4871 80.9011 83.9078 82.5185 80.7356C84.3578 77.1244 84.3578 72.4106 84.3578 62.9606V38.2106C84.3578 28.7606 84.3578 24.0356 82.5185 20.4356C80.9011 17.2635 78.3219 14.6842 75.1497 13.0669C73.0572 12.0038 70.5935 11.5538 67.0497 11.3625C66.4852 9.69119 65.4111 8.23885 63.9783 7.20969C62.5456 6.18053 60.8263 5.62633 59.0622 5.625H57.5547C55.6085 2.26125 51.9747 0 47.8235 0H42.1985C38.036 0 34.3797 2.26125 32.4672 5.625H30.9597H30.9372ZM36.5004 9.84375C36.2535 10.2713 35.8985 10.6263 35.4709 10.8732C35.0434 11.12 34.5584 11.25 34.0647 11.25H30.9372C30.1913 11.25 29.4759 11.5463 28.9485 12.0738C28.421 12.6012 28.1247 13.3166 28.1247 14.0625V19.6875C28.1247 20.4334 28.421 21.1488 28.9485 21.6762C29.4759 22.2037 30.1913 22.5 30.9372 22.5H59.0622C59.8081 22.5 60.5235 22.2037 61.051 21.6762C61.5784 21.1488 61.8747 20.4334 61.8747 19.6875V14.0625C61.8747 13.3166 61.5784 12.6012 61.051 12.0738C60.5235 11.5463 59.8081 11.25 59.0622 11.25H55.9347C55.441 11.25 54.9561 11.12 54.5285 10.8732C54.101 10.6263 53.7459 10.2713 53.4991 9.84375L52.6891 8.4375C52.1956 7.58054 51.485 6.86881 50.6288 6.37405C49.7726 5.87929 48.8011 5.61898 47.8122 5.61938H42.1872C41.1983 5.61898 40.2269 5.87929 39.3706 6.37405C38.5144 6.86881 37.8038 7.58054 37.3104 8.4375L36.5004 9.84375ZM21.9879 17.1L22.4885 17.0606V19.7044C22.4885 21.9421 23.3774 24.0883 24.9598 25.6706C26.5421 27.2529 28.6882 28.1419 30.926 28.1419H59.051C61.2887 28.1419 63.4349 27.2529 65.0172 25.6706C66.5995 24.0883 67.4885 21.9421 67.4885 19.7044V17.0606L67.9891 17.1C70.4529 17.3025 71.7185 17.6681 72.596 18.1125C74.711 19.1925 76.4322 20.9138 77.5122 23.0288C77.9622 23.9063 78.3279 25.1719 78.5247 27.6356C78.7328 30.1669 78.7385 33.4294 78.7385 38.2669V63.0169C78.7385 67.8375 78.7328 71.1169 78.5247 73.6481C78.3222 76.1119 77.9566 77.3775 77.5122 78.255C76.4337 80.3717 74.7127 82.0927 72.596 83.1713C71.7185 83.6213 70.4529 83.9869 67.9891 84.1838C65.4579 84.3919 62.1953 84.3975 57.3578 84.3975H32.6078C27.7872 84.3975 24.5079 84.3919 21.9766 84.1838C19.5129 83.9813 18.2472 83.6156 17.3697 83.1713C15.253 82.0927 13.532 80.3717 12.4535 78.255C12.0035 77.3775 11.6379 76.1119 11.441 73.6481C11.2329 71.1169 11.2272 67.8544 11.2272 63.0169V38.2669C11.2272 33.4463 11.2329 30.1669 11.441 27.6356C11.6435 25.1719 12.0091 23.9063 12.4535 23.0288C13.5335 20.9138 15.2547 19.1925 17.3697 18.1125C18.2472 17.6625 19.5129 17.2969 21.9766 17.1H21.9879Z" fill="black"/>
</svg>
