<svg width="32" height="32" viewBox="0 0 32 32" fill="none" xmlns="http://www.w3.org/2000/svg">
<path d="M8.66699 21.3853C9.83144 21.3853 10.9634 21.5187 12.063 21.7853C13.1625 22.052 14.2528 22.4876 15.3337 23.092V10.0107C14.371 9.32356 13.3105 8.80801 12.1523 8.46401C10.9923 8.1209 9.83055 7.94934 8.66699 7.94934C7.78166 7.94934 6.93588 8.02268 6.12966 8.16934C5.32344 8.31601 4.61366 8.56223 4.00033 8.90801V22.236C4.62433 21.9693 5.3581 21.7605 6.20166 21.6093C7.04521 21.4582 7.86699 21.384 8.66699 21.3867M16.667 23.0933C17.7479 22.4907 18.8381 22.0551 19.9377 21.7867C21.0372 21.5182 22.1692 21.3849 23.3337 21.3867C24.1337 21.3867 24.9554 21.4618 25.799 21.612C26.6425 21.7622 27.3763 21.9707 28.0003 22.2373V8.90801C27.387 8.56223 26.6772 8.31601 25.871 8.16934C25.0648 8.02268 24.219 7.94934 23.3337 7.94934C22.1692 7.94934 21.0079 8.1209 19.8497 8.46401C18.6905 8.80801 17.6297 9.32356 16.667 10.0107V23.0933ZM16.0003 25.0267C14.9159 24.2853 13.7514 23.7156 12.507 23.3173C11.2625 22.9191 9.98255 22.72 8.66699 22.72C7.57455 22.72 6.49899 22.8733 5.44033 23.18C4.38255 23.4885 3.4581 23.8956 2.66699 24.4013V8.09334C3.42255 7.63112 4.32921 7.26934 5.38699 7.00801C6.44388 6.7449 7.53721 6.61334 8.66699 6.61334C9.97366 6.61334 11.2474 6.80134 12.4883 7.17734C13.731 7.55423 14.9017 8.10134 16.0003 8.81868C17.0999 8.10134 18.2705 7.55468 19.5123 7.17868C20.7541 6.80268 22.0279 6.61468 23.3337 6.61468C24.4634 6.61468 25.5528 6.74534 26.6017 7.00668C27.6505 7.26801 28.5612 7.62979 29.3337 8.09201V24.4C28.547 23.8933 27.6234 23.4867 26.563 23.18C25.5026 22.8716 24.4261 22.7173 23.3337 22.7173C22.0181 22.7173 20.7381 22.9165 19.4937 23.3147C18.2492 23.7129 17.0848 24.2836 16.0003 25.0267ZM18.5137 12.7907V11.5507C19.2292 11.188 19.9959 10.916 20.8137 10.7347C21.6314 10.5533 22.4714 10.4627 23.3337 10.4627C23.8261 10.4627 24.299 10.4942 24.7523 10.5573C25.2048 10.6213 25.6723 10.7111 26.155 10.8267V12.0373C25.6892 11.8889 25.2359 11.7858 24.795 11.728C24.3523 11.6711 23.8652 11.6427 23.3337 11.6427C22.4714 11.6427 21.6305 11.7396 20.811 11.9333C19.9897 12.1271 19.2234 12.4129 18.5123 12.7907M18.5123 20.0733V18.78C19.195 18.4182 19.9581 18.1467 20.8017 17.9653C21.6452 17.784 22.4892 17.6933 23.3337 17.6933C23.8261 17.6933 24.299 17.7253 24.7523 17.7893C25.2048 17.8516 25.6723 17.9409 26.155 18.0573V19.268C25.6892 19.1196 25.2359 19.0165 24.795 18.9587C24.3523 18.9018 23.8652 18.8733 23.3337 18.8733C22.4714 18.8733 21.6305 18.9778 20.811 19.1867C19.9897 19.3947 19.2234 19.6902 18.5123 20.0733ZM18.5123 16.4573V15.1653C19.2288 14.8027 19.9959 14.5311 20.8137 14.3507C21.6314 14.1702 22.4714 14.0796 23.3337 14.0787C23.8261 14.0787 24.2985 14.1098 24.751 14.172C25.2043 14.236 25.6719 14.3262 26.1537 14.4427V15.6533C25.6888 15.504 25.2354 15.4009 24.7937 15.344C24.3519 15.2862 23.8652 15.2573 23.3337 15.2573C22.4714 15.2573 21.6305 15.3631 20.811 15.5747C19.9897 15.7853 19.2234 16.0796 18.5123 16.4573Z" fill="black"/>
</svg>
