<svg width="18" height="19" viewBox="0 0 18 19" fill="none" xmlns="http://www.w3.org/2000/svg">
<g clip-path="url(#clip0_2403_4394)">
<path d="M14 15.5H3V4.5H9.61L10.61 3.5H3C2.73478 3.5 2.48043 3.60536 2.29289 3.79289C2.10536 3.98043 2 4.23478 2 4.5V15.5C2 15.7652 2.10536 16.0196 2.29289 16.2071C2.48043 16.3946 2.73478 16.5 3 16.5H14C14.2652 16.5 14.5196 16.3946 14.7071 16.2071C14.8946 16.0196 15 15.7652 15 15.5V8L14 9V15.5Z" fill="white"/>
<path d="M16.7647 3.42L15.0797 1.735C15.005 1.66002 14.9161 1.60052 14.8183 1.55993C14.7205 1.51934 14.6156 1.49844 14.5097 1.49844C14.4038 1.49844 14.299 1.51934 14.2012 1.55993C14.1034 1.60052 14.0145 1.66002 13.9397 1.735L7.08473 8.63L6.52973 11.035C6.50609 11.1516 6.50858 11.272 6.53701 11.3875C6.56545 11.503 6.61913 11.6107 6.6942 11.703C6.76926 11.7953 6.86384 11.8698 6.97114 11.9211C7.07844 11.9725 7.19578 11.9994 7.31473 12C7.37622 12.0067 7.43825 12.0067 7.49973 12L9.92473 11.465L16.7647 4.56C16.8397 4.48522 16.8992 4.39638 16.9398 4.29857C16.9804 4.20076 17.0013 4.0959 17.0013 3.99C17.0013 3.8841 16.9804 3.77924 16.9398 3.68143C16.8992 3.58362 16.8397 3.49478 16.7647 3.42ZM9.40473 10.54L7.57473 10.945L7.99973 9.13L13.1597 3.935L14.5697 5.345L9.40473 10.54ZM15.1347 4.78L13.7247 3.37L14.4997 2.58L15.9197 4L15.1347 4.78Z" fill="white"/>
</g>
<defs>
<clipPath id="clip0_2403_4394">
<rect width="18" height="18" fill="white" transform="translate(0 0.5)"/>
</clipPath>
</defs>
</svg>
