<svg width="50" height="50" viewBox="0 0 50 50" fill="none" xmlns="http://www.w3.org/2000/svg">
<g clip-path="url(#clip0_2974_4194)">
<path d="M25 17.8571V28.5714" stroke="#DB4437" stroke-width="2" stroke-linecap="round" stroke-linejoin="round"/>
<path d="M25.0001 41.0714C25.9863 41.0714 26.7858 40.2719 26.7858 39.2857C26.7858 38.2995 25.9863 37.5 25.0001 37.5C24.0138 37.5 23.2144 38.2995 23.2144 39.2857C23.2144 40.2719 24.0138 41.0714 25.0001 41.0714Z" stroke="#DB4437" stroke-width="2" stroke-linecap="round" stroke-linejoin="round"/>
<path d="M28.1787 3.75C27.879 3.16499 27.4236 2.67405 26.8628 2.33122C26.302 1.9884 25.6574 1.807 25.0001 1.807C24.3428 1.807 23.6982 1.9884 23.1374 2.33122C22.5766 2.67405 22.1212 3.16499 21.8215 3.75L2.17868 43.0357C1.90472 43.5794 1.77428 44.1841 1.79976 44.7923C1.82524 45.4006 2.00579 45.9923 2.32426 46.5111C2.64274 47.03 3.08856 47.4588 3.61939 47.7569C4.15023 48.055 4.74845 48.2124 5.35725 48.2143H44.643C45.2518 48.2124 45.85 48.055 46.3808 47.7569C46.9117 47.4588 47.3575 47.03 47.676 46.5111C47.9944 45.9923 48.175 45.4006 48.2005 44.7923C48.2259 44.1841 48.0955 43.5794 47.8215 43.0357L28.1787 3.75Z" stroke="#DB4437" stroke-width="2" stroke-linecap="round" stroke-linejoin="round"/>
</g>
<defs>
<clipPath id="clip0_2974_4194">
<rect width="50" height="50" fill="white"/>
</clipPath>
</defs>
</svg>
