<svg width="44" height="43" viewBox="0 0 44 43" fill="none" xmlns="http://www.w3.org/2000/svg">
<g filter="url(#filter0_d_2669_3719)">
<rect x="4.25" y="0.151917" width="34.7801" height="34.3365" rx="10" fill="#D4A328"/>
<rect x="4.75" y="0.651917" width="33.7801" height="33.3365" rx="9.5" stroke="black"/>
</g>
<path d="M25.892 12.7875C25.8124 12.0432 25.4772 11.4636 24.8863 11.0488C24.301 10.6341 23.5397 10.4267 22.6022 10.4267C21.9431 10.4267 21.3778 10.5261 20.9062 10.725C20.4346 10.9238 20.0738 11.1937 19.8238 11.5346C19.5738 11.8755 19.4459 12.2647 19.4403 12.7022C19.4403 13.0659 19.5226 13.3812 19.6874 13.6483C19.8579 13.9153 20.088 14.1426 20.3778 14.3301C20.6675 14.5119 20.9885 14.6653 21.3408 14.7903C21.6931 14.9153 22.0482 15.0204 22.4062 15.1057L24.0425 15.5147C24.7016 15.6682 25.3351 15.8755 25.9431 16.1369C26.5567 16.3983 27.105 16.7278 27.588 17.1255C28.0766 17.5233 28.463 18.0034 28.7471 18.5659C29.0312 19.1284 29.1732 19.7875 29.1732 20.5432C29.1732 21.5659 28.9118 22.4665 28.3891 23.2449C27.8664 24.0176 27.1107 24.6227 26.1221 25.0602C25.1391 25.492 23.9488 25.7079 22.551 25.7079C21.1931 25.7079 20.0141 25.4977 19.0141 25.0772C18.0198 24.6568 17.2414 24.0432 16.6789 23.2363C16.1221 22.4295 15.8209 21.4466 15.7755 20.2875H18.8863C18.9317 20.8954 19.1192 21.4011 19.4488 21.8045C19.7783 22.2079 20.2073 22.5091 20.7357 22.7079C21.2698 22.9068 21.8664 23.0062 22.5255 23.0062C23.213 23.0062 23.8153 22.904 24.3323 22.6994C24.855 22.4892 25.2641 22.1994 25.5596 21.8301C25.855 21.4551 26.0056 21.0176 26.0113 20.5176C26.0056 20.063 25.8721 19.688 25.6107 19.3926C25.3493 19.0915 24.9829 18.8415 24.5113 18.6426C24.0454 18.438 23.4999 18.2562 22.8749 18.0971L20.8891 17.5858C19.4516 17.2165 18.3153 16.6568 17.48 15.9068C16.6505 15.1511 16.2357 14.1483 16.2357 12.8983C16.2357 11.8699 16.5141 10.9693 17.0709 10.1966C17.6334 9.42384 18.3976 8.82441 19.3635 8.39827C20.3295 7.96645 21.4232 7.75054 22.6448 7.75054C23.8834 7.75054 24.9687 7.96645 25.9005 8.39827C26.838 8.82441 27.5738 9.41816 28.1079 10.1795C28.642 10.9352 28.9175 11.8045 28.9346 12.7875H25.892Z" fill="white"/>
<defs>
<filter id="filter0_d_2669_3719" x="0.25" y="0.151917" width="42.7803" height="42.3365" filterUnits="userSpaceOnUse" color-interpolation-filters="sRGB">
<feFlood flood-opacity="0" result="BackgroundImageFix"/>
<feColorMatrix in="SourceAlpha" type="matrix" values="0 0 0 0 0 0 0 0 0 0 0 0 0 0 0 0 0 0 127 0" result="hardAlpha"/>
<feOffset dy="4"/>
<feGaussianBlur stdDeviation="2"/>
<feComposite in2="hardAlpha" operator="out"/>
<feColorMatrix type="matrix" values="0 0 0 0 0 0 0 0 0 0 0 0 0 0 0 0 0 0 0.25 0"/>
<feBlend mode="normal" in2="BackgroundImageFix" result="effect1_dropShadow_2669_3719"/>
<feBlend mode="normal" in="SourceGraphic" in2="effect1_dropShadow_2669_3719" result="shape"/>
</filter>
</defs>
</svg>
