<svg width="90" height="90" viewBox="0 0 90 90" fill="none" xmlns="http://www.w3.org/2000/svg">
<g clip-path="url(#clip0_2396_3688)">
<path d="M45 30C36.7125 30 30 36.7125 30 45C30 53.2875 36.7125 60 45 60C53.2875 60 60 53.2875 60 45C60 36.7125 53.2875 30 45 30ZM15 56.25C12.9375 56.25 11.25 57.9375 11.25 60V71.25C11.25 75.375 14.625 78.75 18.75 78.75H30C32.0625 78.75 33.75 77.0625 33.75 75C33.75 72.9375 32.0625 71.25 30 71.25H22.5C20.4375 71.25 18.75 69.5625 18.75 67.5V60C18.75 57.9375 17.0625 56.25 15 56.25ZM18.75 22.5C18.75 20.4375 20.4375 18.75 22.5 18.75H30C32.0625 18.75 33.75 17.0625 33.75 15C33.75 12.9375 32.0625 11.25 30 11.25H18.75C14.625 11.25 11.25 14.625 11.25 18.75V30C11.25 32.0625 12.9375 33.75 15 33.75C17.0625 33.75 18.75 32.0625 18.75 30V22.5ZM71.25 11.25H60C57.9375 11.25 56.25 12.9375 56.25 15C56.25 17.0625 57.9375 18.75 60 18.75H67.5C69.5625 18.75 71.25 20.4375 71.25 22.5V30C71.25 32.0625 72.9375 33.75 75 33.75C77.0625 33.75 78.75 32.0625 78.75 30V18.75C78.75 14.625 75.375 11.25 71.25 11.25ZM71.25 67.5C71.25 69.5625 69.5625 71.25 67.5 71.25H60C57.9375 71.25 56.25 72.9375 56.25 75C56.25 77.0625 57.9375 78.75 60 78.75H71.25C75.375 78.75 78.75 75.375 78.75 71.25V60C78.75 57.9375 77.0625 56.25 75 56.25C72.9375 56.25 71.25 57.9375 71.25 60V67.5Z" fill="black"/>
</g>
<defs>
<clipPath id="clip0_2396_3688">
<rect width="90" height="90" fill="white"/>
</clipPath>
</defs>
</svg>
