<svg width="24" height="25" viewBox="0 0 24 25" fill="none" xmlns="http://www.w3.org/2000/svg">
<g clip-path="url(#clip0_2392_6207)">
<path d="M9.5 7V10H6.5V7H9.5ZM11 5.5H5V11.5H11V5.5ZM9.5 15V18H6.5V15H9.5ZM11 13.5H5V19.5H11V13.5ZM17.5 7V10H14.5V7H17.5ZM19 5.5H13V11.5H19V5.5ZM13 13.5H14.5V15H13V13.5ZM14.5 15H16V16.5H14.5V15ZM16 13.5H17.5V15H16V13.5ZM13 16.5H14.5V18H13V16.5ZM14.5 18H16V19.5H14.5V18ZM16 16.5H17.5V18H16V16.5ZM17.5 15H19V16.5H17.5V15ZM17.5 18H19V19.5H17.5V18ZM21 7.5C20.45 7.5 20 7.05 20 6.5V4.5H18C17.45 4.5 17 4.05 17 3.5C17 2.95 17.45 2.5 18 2.5H21C21.55 2.5 22 2.95 22 3.5V6.5C22 7.05 21.55 7.5 21 7.5ZM22 21.5V18.5C22 17.95 21.55 17.5 21 17.5C20.45 17.5 20 17.95 20 18.5V20.5H18C17.45 20.5 17 20.95 17 21.5C17 22.05 17.45 22.5 18 22.5H21C21.55 22.5 22 22.05 22 21.5ZM3 22.5H6C6.55 22.5 7 22.05 7 21.5C7 20.95 6.55 20.5 6 20.5H4V18.5C4 17.95 3.55 17.5 3 17.5C2.45 17.5 2 17.95 2 18.5V21.5C2 22.05 2.45 22.5 3 22.5ZM2 3.5V6.5C2 7.05 2.45 7.5 3 7.5C3.55 7.5 4 7.05 4 6.5V4.5H6C6.55 4.5 7 4.05 7 3.5C7 2.95 6.55 2.5 6 2.5H3C2.45 2.5 2 2.95 2 3.5Z" fill="black"/>
</g>
<defs>
<clipPath id="clip0_2392_6207">
<rect width="24" height="24" fill="white" transform="translate(0 0.5)"/>
</clipPath>
</defs>
</svg>
