<svg width="24" height="25" viewBox="0 0 24 25" fill="none" xmlns="http://www.w3.org/2000/svg">
<g clip-path="url(#clip0_2392_5595)">
<path d="M12 6.5V8.29C12 8.74 12.54 8.96 12.85 8.64L15.64 5.85C15.84 5.65 15.84 5.34 15.64 5.14L12.85 2.35C12.54 2.04 12 2.26 12 2.71V4.5C7.58 4.5 4 8.08 4 12.5C4 13.54 4.2 14.54 4.57 15.45C4.84 16.12 5.7 16.3 6.21 15.79C6.48 15.52 6.59 15.11 6.44 14.75C6.15 14.06 6 13.29 6 12.5C6 9.19 8.69 6.5 12 6.5ZM17.79 9.21C17.52 9.48 17.41 9.9 17.56 10.25C17.84 10.95 18 11.71 18 12.5C18 15.81 15.31 18.5 12 18.5V16.71C12 16.26 11.46 16.04 11.15 16.36L8.36 19.15C8.16 19.35 8.16 19.66 8.36 19.86L11.15 22.65C11.46 22.96 12 22.74 12 22.3V20.5C16.42 20.5 20 16.92 20 12.5C20 11.46 19.8 10.46 19.43 9.55C19.16 8.88 18.3 8.7 17.79 9.21Z" fill="white"/>
</g>
<defs>
<clipPath id="clip0_2392_5595">
<rect width="24" height="24" fill="white" transform="translate(0 0.5)"/>
</clipPath>
</defs>
</svg>
