<svg width="45" height="42" viewBox="0 0 45 42" fill="none" xmlns="http://www.w3.org/2000/svg">
<path fill-rule="evenodd" clip-rule="evenodd" d="M14.0628 10.5C14.0628 8.41142 14.9518 6.40838 16.5341 4.93153C18.1164 3.45468 20.2625 2.625 22.5003 2.625C24.7381 2.625 26.8842 3.45468 28.4665 4.93153C30.0489 6.40838 30.9378 8.41142 30.9378 10.5C30.9378 12.5886 30.0489 14.5916 28.4665 16.0685C26.8842 17.5453 24.7381 18.375 22.5003 18.375C20.2625 18.375 18.1164 17.5453 16.5341 16.0685C14.9518 14.5916 14.0628 12.5886 14.0628 10.5ZM7.03343 35.1838C7.09665 31.3941 8.754 27.7796 11.6477 25.1205C14.5415 22.4614 18.4395 20.971 22.5003 20.971C26.5612 20.971 30.4592 22.4614 33.3529 25.1205C36.2466 27.7796 37.904 31.3941 37.9672 35.1838C37.9721 35.4389 37.8971 35.6898 37.7516 35.9058C37.6061 36.1218 37.3963 36.2936 37.1478 36.4C32.5525 38.3665 27.5556 39.3814 22.5003 39.375C17.2766 39.375 12.3134 38.311 7.8528 36.4C7.60434 36.2936 7.39451 36.1218 7.24898 35.9058C7.10346 35.6898 7.02855 35.4389 7.03343 35.1838Z" fill="black"/>
</svg>
